# Blender 4.5.1 LTS
# www.blender.org
mtllib Carton.mtl
o CardBoardBoxFolded
v -0.594128 0.021725 -0.507125
v -0.594128 0.004267 0.249139
v -0.582548 -0.010027 0.245879
v -0.594128 0.004266 -0.250861
v -0.596265 -0.000317 -0.252583
v -0.596265 -0.000317 0.247417
v -0.582548 0.003093 -0.410191
v -0.601147 -0.003172 0.247404
v -0.582548 -0.010027 -0.254121
v -0.601147 -0.002237 -0.252596
v -0.582548 -0.000773 -0.261191
v -0.594128 0.022171 -0.260022
v -0.582548 0.002234 0.392729
v -0.582305 0.011532 -0.410375
v -0.582305 0.007666 -0.261375
v -0.582305 -0.001588 -0.254306
v -0.582305 0.000041 0.246565
v -0.092548 -0.006880 0.257729
v -0.594232 0.028026 -0.507163
v -0.594232 0.011904 0.248930
v -0.594232 0.011904 -0.251070
v -0.594232 0.028473 -0.260060
v -0.594232 0.021830 0.261358
v -0.594128 0.017556 0.261567
v 0.112953 0.007052 0.260109
v 0.095872 0.021725 -0.507125
v 0.095872 0.004266 0.249139
v 0.112953 0.012580 0.245879
v 0.095872 0.004266 -0.250861
v 0.099202 0.003253 -0.252583
v 0.099202 0.003253 0.247417
v 0.112953 -0.000541 -0.410191
v 0.103697 0.008522 0.247404
v 0.112953 0.012579 -0.254121
v 0.103697 0.008522 -0.252596
v 0.112953 0.003325 -0.261191
v 0.095872 0.022171 -0.260022
v 0.112953 -0.002061 0.395109
v 0.113196 -0.008980 -0.410375
v 0.113196 -0.005114 -0.261375
v 0.113196 0.004141 -0.254306
v 0.113196 -0.005844 0.394924
v 0.113196 -0.000965 0.258295
v 0.602953 0.007052 0.260109
v 0.095976 0.028026 -0.507163
v 0.095976 0.011904 0.248930
v 0.095976 0.011904 -0.251070
v 0.095976 0.028473 -0.260060
v 0.095976 0.021830 0.261358
v -0.079144 -0.022850 -0.507125
v -0.079144 -0.005391 0.249139
v -0.092548 -0.010027 0.245879
v -0.079144 -0.005391 -0.250861
v -0.088562 -0.001474 -0.252583
v -0.088562 -0.001474 0.247417
v -0.092548 0.003093 -0.410191
v -0.086969 -0.005970 0.247404
v -0.092548 -0.010027 -0.254121
v -0.086969 -0.005970 -0.252596
v -0.092548 -0.000773 -0.261191
v -0.079144 -0.023296 -0.260022
v -0.092548 0.002234 0.392729
v -0.092791 0.011532 -0.410375
v -0.092791 0.007666 -0.261375
v -0.092791 -0.001588 -0.254306
v -0.092791 0.000041 0.246565
v -0.582548 -0.006880 0.257729
v -0.079248 -0.029151 -0.507164
v -0.079248 -0.013029 0.248930
v -0.079248 -0.013029 -0.251070
v -0.079248 -0.029597 -0.260060
v -0.079248 -0.022954 0.261358
v 0.610856 -0.022850 -0.507125
v 0.610856 -0.005391 0.249139
v 0.602953 0.012580 0.245879
v 0.610856 -0.005391 -0.250861
v 0.614208 -0.001474 -0.252583
v 0.614208 -0.001474 0.247417
v 0.602953 -0.000541 -0.410191
v 0.624769 -0.003067 0.247404
v 0.602953 0.012580 -0.254121
v 0.624769 -0.003067 -0.252596
v 0.602953 0.003325 -0.261191
v 0.610856 -0.023296 -0.260022
v 0.602710 -0.008980 -0.410375
v 0.602710 -0.005114 -0.261375
v 0.602710 0.004141 -0.254306
v 0.602710 -0.005844 0.394924
v 0.602710 -0.000965 0.258295
v 0.113196 0.007052 0.258295
v 0.610960 -0.029151 -0.507164
v 0.610960 -0.013029 0.248930
v 0.610960 -0.013029 -0.251070
v 0.610960 -0.029597 -0.260060
v 0.610960 -0.022954 0.261358
v -0.079248 -0.022954 0.505023
v 0.610960 -0.022954 0.505023
v 0.095872 0.017556 0.505023
v -0.079144 -0.018681 0.505023
v -0.594232 0.021830 0.505023
v -0.594337 0.017556 0.505062
v 0.095767 0.021830 0.505023
v 0.610856 -0.018681 0.504984
v 0.610856 -0.018681 0.261567
v 0.095872 0.017556 0.261567
v 0.602710 0.007052 0.258295
v -0.079144 -0.018681 0.261567
v -0.582305 0.006016 0.392545
v -0.582305 0.001137 0.255915
v -0.092791 0.006016 0.392545
v -0.092791 0.001137 0.255915
v 0.602710 -0.002061 0.394924
vn -0.0644 0.7967 0.6009
vn -0.1876 0.9464 0.2628
vn -0.1404 0.9413 -0.3071
vn -0.0464 0.9989 -0.0000
vn 0.9064 -0.4225 -0.0000
vn -0.0000 -0.8906 -0.4548
vn 0.2036 -0.9255 -0.3193
vn -0.1321 -0.9443 -0.3013
vn 0.2251 -0.9705 0.0863
vn -0.1290 -0.9879 0.0859
vn 0.0591 0.9975 -0.0391
vn 0.0498 0.9467 0.3182
vn 0.0113 0.9544 0.2982
vn 0.0111 0.9991 -0.0400
vn -0.0000 -0.9997 -0.0259
vn -0.0000 0.9971 -0.0761
vn -0.0000 0.8906 0.4548
vn -0.0000 0.9997 0.0259
vn -0.0000 -0.9867 0.1628
vn 0.0325 0.9995 -0.0016
vn -0.9996 0.0265 -0.0054
vn -0.9994 0.0342 -0.0035
vn -0.9994 0.0346 -0.0028
vn -0.0000 -0.0219 -0.9998
vn 0.0574 -0.0766 0.9954
vn -0.0375 -0.0878 0.9954
vn -0.0233 -0.0862 0.9960
vn -0.9993 0.0293 0.0244
vn -0.9995 0.0290 0.0114
vn -0.9996 0.0288 0.0007
vn -0.9988 0.0296 0.0388
vn 0.0293 0.0623 -0.9976
vn 0.0233 0.0606 -0.9979
vn -0.0913 0.0286 -0.9954
vn -0.9997 0.0246 -0.0065
vn -0.9998 0.0200 0.0094
vn -0.9997 0.0215 0.0061
vn -0.9997 0.0244 -0.0000
vn -0.3664 -0.9305 -0.0009
vn -0.9997 -0.0170 0.0158
vn -0.9999 -0.0100 0.0092
vn -1.0000 -0.0065 0.0058
vn 0.1539 0.0962 -0.9834
vn -0.9997 -0.0159 -0.0185
vn -0.9994 -0.0155 -0.0294
vn -0.9998 -0.0163 -0.0070
vn -0.0000 -0.4555 -0.8902
vn -0.9999 -0.0165 -0.0000
vn -0.1387 -0.0989 0.9854
vn -0.0000 0.4769 0.8789
vn -0.0831 -0.9520 0.2946
vn -0.1660 -0.9861 -0.0000
vn -0.1864 -0.9825 -0.0030
vn -0.2009 -0.9796 -0.0026
vn 0.2177 0.9262 -0.3079
vn -0.0000 0.8906 -0.4548
vn -0.0536 -0.9984 -0.0192
vn -0.0266 -0.9995 -0.0188
vn -0.0406 -0.9546 0.2952
vn -0.0903 -0.9503 0.2980
vn -0.0000 -1.0000 0.0018
vn -0.0000 0.9997 -0.0259
vn -0.0000 -0.9173 0.3981
vn -0.0000 -0.9174 0.3980
vn -0.0000 -1.0000 -0.0000
vn 0.0002 -0.0244 0.9997
vn -0.0000 -0.9997 0.0259
vn -0.0000 -0.8906 0.4548
vn -0.0000 -0.9994 -0.0357
vn -0.0000 0.0219 -0.9998
vn -0.9992 -0.0408 -0.0021
vn -0.9994 -0.0344 -0.0065
vn -0.9994 -0.0355 -0.0057
vn 0.0402 0.1975 0.9795
vn -0.3027 0.5720 0.7623
vn -0.9993 -0.0293 0.0244
vn -0.9996 -0.0288 0.0007
vn -0.9995 -0.0290 0.0114
vn -0.9988 -0.0296 0.0388
vn -0.1843 0.0640 -0.9808
vn -0.1504 0.0590 -0.9869
vn -0.2238 0.0697 -0.9721
vn -0.9994 -0.0343 -0.0065
vn -0.9996 -0.0279 -0.0108
vn -0.0000 -0.0061 -1.0000
vn 0.9998 0.0200 0.0094
vn 0.9997 0.0244 -0.0000
vn 0.9997 0.0216 0.0061
vn -0.9039 0.4278 0.0004
vn -0.0000 1.0000 -0.0018
vn -0.0000 0.9438 -0.3306
vn -0.0000 0.9437 -0.3307
vn 0.1321 0.9637 -0.2319
vn 0.2160 0.9764 -0.0000
vn 0.9997 -0.0169 0.0158
vn 1.0000 -0.0065 0.0063
vn 0.9999 -0.0100 0.0095
vn -0.2540 0.0740 -0.9644
vn 0.9997 -0.0159 -0.0185
vn 0.9998 -0.0163 -0.0070
vn 0.9994 -0.0155 -0.0294
vn -0.0000 0.9322 0.3621
vn 0.2715 0.9225 0.2743
vn 0.9999 -0.0166 -0.0000
vn 0.2540 -0.0740 0.9644
vn -0.0000 1.0000 0.0018
vn 0.1302 0.9519 0.2772
vn 0.2057 0.9786 -0.0000
vn 0.2575 0.9663 -0.0009
vn 0.2883 0.9575 -0.0007
vn -0.0000 1.0000 -0.0000
vn -0.2168 -0.0740 0.9734
vn -0.2146 -0.0564 0.9751
vn -0.2158 -0.0657 0.9742
vn 0.9993 0.0293 0.0244
vn 0.9996 0.0288 0.0007
vn 0.9995 0.0290 0.0114
vn 0.9988 0.0296 0.0388
vn 0.2503 0.0383 -0.9674
vn 0.3026 0.0303 -0.9526
vn 0.2748 0.0346 -0.9609
vn 0.9994 0.0342 -0.0035
vn 0.9997 0.0246 -0.0065
vn 0.9996 0.0265 -0.0054
vn 0.5882 -0.8087 -0.0000
vn -0.0000 0.4555 -0.8902
vn -0.9997 0.0169 0.0158
vn 0.2131 0.0440 -0.9760
vn -0.9997 0.0159 -0.0185
vn -0.9998 0.0163 -0.0070
vn -0.9994 0.0155 -0.0294
vn -0.9999 0.0165 -0.0000
vn -0.2131 -0.0440 0.9760
vn -0.0000 -0.4769 0.8789
vn -0.2521 0.9184 0.3049
vn -0.7597 0.6502 -0.0000
vn -0.4567 0.8896 -0.0000
vn -0.2354 -0.9419 -0.2398
vn -0.6748 -0.7380 -0.0000
vn -0.3778 -0.9259 -0.0000
vn -0.0000 0.9173 0.3981
vn 0.5249 0.6785 0.5140
vn 0.5828 0.8126 -0.0000
vn -0.2592 -0.9658 -0.0049
vn 0.9998 -0.0206 -0.0002
vn 0.9997 -0.0236 -0.0045
vn 0.9997 -0.0242 -0.0055
vn 0.4319 0.4325 0.7914
vn 0.2889 0.2858 0.9137
vn 0.9993 -0.0293 0.0244
vn 0.9995 -0.0290 0.0114
vn 0.9996 -0.0288 0.0007
vn 0.9988 -0.0296 0.0388
vn -0.0450 -0.0863 -0.9953
vn -0.0134 -0.0794 -0.9968
vn 0.0564 -0.0639 -0.9964
vn 0.9996 -0.0279 -0.0108
vn -0.0000 0.0061 -1.0000
vn -0.0000 -0.9438 -0.3306
vn 0.2060 -0.9504 -0.2329
vn -0.0000 -1.0000 -0.0018
vn 0.3159 -0.9488 -0.0000
vn 0.5850 -0.8110 -0.0000
vn 0.9997 0.0169 0.0158
vn -0.1067 -0.0996 -0.9893
vn 0.9997 0.0159 -0.0185
vn 0.9994 0.0155 -0.0294
vn 0.9998 0.0163 -0.0070
vn 0.9999 0.0165 -0.0000
vn 0.1067 0.0996 0.9893
vn 1.0000 -0.0000 0.0004
vn -1.0000 -0.0000 -0.0004
vn -0.0000 0.0044 1.0000
vn -0.0000 0.0046 1.0000
vn -0.0000 0.0487 0.9988
vn -0.0000 0.9994 -0.0357
vn -0.9992 0.0408 -0.0021
vn 0.9992 0.0408 -0.0021
vn 0.9994 0.0346 -0.0028
vn -0.0000 -0.9977 0.0674
vn -0.0000 0.9978 0.0665
vt 0.951836 0.256583
vt 0.948611 0.256566
vt 0.948611 0.071776
vt 0.951836 0.071793
vt 0.547251 0.484233
vt 0.550477 0.484266
vt 0.550480 0.669110
vt 0.547254 0.669077
vt 0.618953 0.815992
vt 0.618953 0.634898
vt 0.622114 0.634871
vt 0.622114 0.815966
vt 0.806903 0.634871
vt 0.806904 0.815966
vt 0.747678 0.375590
vt 0.747678 0.560048
vt 0.567088 0.560048
vt 0.567088 0.375590
vt 0.563867 0.815992
vt 0.563867 0.634898
vt 0.567114 0.563200
vt 0.747704 0.563200
vt 0.747704 0.618187
vt 0.567114 0.618187
vt 0.808484 0.634864
vt 0.808484 0.815958
vt 0.563869 0.375556
vt 0.563869 0.560015
vt 0.625001 0.890755
vt 0.630202 0.883722
vt 0.013727 0.863035
vt 0.569994 0.863035
vt 0.569720 0.872740
vt 0.014006 0.872741
vt 0.395379 0.781951
vt 0.394449 0.796416
vt 0.388356 0.796401
vt 0.388533 0.789970
vt 0.916526 0.913669
vt 0.906890 0.913208
vt 0.906888 0.742922
vt 0.916524 0.743383
vt 0.918270 0.914858
vt 0.908634 0.914397
vt 0.019965 0.790213
vt 0.019788 0.796643
vt 0.013703 0.796322
vt 0.013573 0.781828
vt 0.624177 0.881143
vt 0.835020 0.736797
vt 0.828204 0.737070
vt 0.828236 0.543017
vt 0.835051 0.542987
vt 0.806918 0.819191
vt 0.622128 0.819191
vt 0.843607 0.338601
vt 0.835082 0.346718
vt 0.828269 0.346506
vt 0.831437 0.338485
vt 0.716662 0.945543
vt 0.709853 0.945705
vt 0.710027 0.940061
vt 0.717446 0.930905
vt 0.966571 0.917181
vt 0.964873 0.919516
vt 0.956143 0.919530
vt 0.959370 0.917151
vt 0.547193 0.673527
vt 0.292108 0.673532
vt 0.292170 0.669081
vt 0.966572 0.634875
vt 0.959372 0.634844
vt 0.386346 0.946000
vt 0.379560 0.945419
vt 0.379678 0.930760
vt 0.386520 0.940356
vt 0.016727 0.105071
vt 0.272238 0.105013
vt 0.272275 0.109472
vt 0.016764 0.109531
vt 0.292166 0.484237
vt 0.288944 0.669104
vt 0.288940 0.484261
vt 0.767517 0.071776
vt 0.767490 0.068615
vt 0.948585 0.068615
vt 0.747678 0.256132
vt 0.567088 0.256132
vt 0.567088 0.071673
vt 0.747678 0.071673
vt 0.547194 0.764879
vt 0.292110 0.764883
vt 0.767490 0.013529
vt 0.948585 0.013529
vt 0.292142 0.479785
vt 0.547227 0.479781
vt 0.986462 0.573293
vt 0.986466 0.945452
vt 0.979964 0.945870
vt 0.979964 0.573153
vt 0.567062 0.013534
vt 0.747652 0.013534
vt 0.747652 0.068521
vt 0.567062 0.068521
vt 0.563869 0.256155
vt 0.563869 0.071697
vt 0.567105 0.259284
vt 0.747695 0.259284
vt 0.747695 0.309133
vt 0.567105 0.309133
vt 0.013729 0.896516
vt 0.014007 0.886811
vt 0.569718 0.886811
vt 0.569995 0.896516
vt 0.902622 0.955050
vt 0.748158 0.948889
vt 0.748822 0.940744
vt 0.902875 0.950722
vt 0.907453 0.729978
vt 0.915337 0.722965
vt 0.921767 0.722655
vt 0.921907 0.728751
vt 0.974865 0.014956
vt 0.974870 0.185241
vt 0.965233 0.185703
vt 0.965228 0.015417
vt 0.976609 0.013767
vt 0.966973 0.014228
vt 0.915765 0.354413
vt 0.907244 0.348188
vt 0.921749 0.348021
vt 0.922195 0.354103
vt 0.745145 0.950179
vt 0.742133 0.951469
vt 0.857925 0.908815
vt 0.857924 0.338452
vt 0.867877 0.338475
vt 0.867878 0.908651
vt 0.022413 0.841605
vt 0.230052 0.840682
vt 0.230197 0.847979
vt 0.022315 0.848903
vt 0.272317 0.294569
vt 0.275505 0.109457
vt 0.275548 0.294554
vt 0.016706 0.013595
vt 0.272217 0.013537
vt 0.272275 0.299028
vt 0.016764 0.299087
vt 0.016806 0.294628
vt 0.013576 0.294612
vt 0.013533 0.109515
vt 0.448821 0.830418
vt 0.449234 0.843458
vt 0.440713 0.847044
vt 0.440323 0.839747
vt 0.748200 0.834554
vt 0.749207 0.847562
vt 0.742413 0.839572
vt 0.742139 0.834554
vt 0.725558 0.966576
vt 0.725528 0.959377
vt 0.727907 0.956149
vt 0.727893 0.964879
vt 0.948618 0.258146
vt 0.767524 0.258146
vt 0.767517 0.256566
vt 0.443251 0.966579
vt 0.443221 0.959379
vt 0.454846 0.829759
vt 0.455119 0.834777
vt 0.292127 0.013539
vt 0.547212 0.013535
vt 0.547213 0.104886
vt 0.292129 0.104890
vt 0.547254 0.294182
vt 0.547250 0.109338
vt 0.550476 0.109314
vt 0.550479 0.294158
vt 0.750897 0.375566
vt 0.750898 0.560025
vt 0.896016 0.338825
vt 0.888132 0.345839
vt 0.881702 0.346149
vt 0.881562 0.340052
vt 0.823458 0.929506
vt 0.823460 0.759220
vt 0.833097 0.758759
vt 0.833095 0.929045
vt 0.821714 0.930694
vt 0.831350 0.930234
vt 0.887702 0.714391
vt 0.896224 0.720615
vt 0.881718 0.720782
vt 0.881272 0.714701
vt 0.586982 0.861419
vt 0.583970 0.862708
vt 0.590660 0.851984
vt 0.806920 0.631646
vt 0.622130 0.631646
vt 0.292166 0.109342
vt 0.843622 0.744845
vt 0.831445 0.745068
vt 0.015295 0.926586
vt 0.013948 0.911961
vt 0.021727 0.920843
vt 0.022117 0.926487
vt 0.968760 0.275815
vt 0.961560 0.275846
vt 0.958332 0.273466
vt 0.967063 0.273480
vt 0.968761 0.558122
vt 0.961561 0.558152
vt 0.345578 0.927150
vt 0.345187 0.921505
vt 0.351669 0.911637
vt 0.352349 0.926308
vt 0.016807 0.670193
vt 0.272317 0.670134
vt 0.272354 0.674593
vt 0.016843 0.674652
vt 0.292169 0.294186
vt 0.288943 0.294153
vt 0.288940 0.109309
vt 0.272275 0.485037
vt 0.275506 0.485053
vt 0.275548 0.670150
vt 0.292141 0.389782
vt 0.547225 0.389778
vt 0.547224 0.298634
vt 0.292139 0.298638
vt 0.764291 0.256580
vt 0.764291 0.071790
vt 0.750897 0.256165
vt 0.750897 0.071707
vt 0.803869 0.978839
vt 0.803615 0.974511
vt 0.957664 0.964514
vt 0.958330 0.972659
vt 0.050106 0.823852
vt 0.051035 0.809387
vt 0.057129 0.809402
vt 0.056951 0.815833
vt 0.890909 0.904152
vt 0.881273 0.903691
vt 0.881273 0.733405
vt 0.890910 0.733866
vt 0.892653 0.905341
vt 0.883017 0.904880
vt 0.425519 0.815584
vt 0.425696 0.809154
vt 0.431782 0.809475
vt 0.431912 0.823969
vt 0.963530 0.965626
vt 0.964354 0.975238
vt 0.945988 0.907268
vt 0.936035 0.907119
vt 0.936026 0.336995
vt 0.945981 0.336912
vt 0.272296 0.389232
vt 0.016785 0.389290
vt 0.272317 0.480578
vt 0.016764 0.485096
vt 0.016806 0.480637
vt 0.272375 0.766070
vt 0.016864 0.766128
vt 0.013576 0.670208
vt 0.013534 0.485111
vt 0.013563 0.832635
vt 0.013669 0.845663
vt 0.366797 0.909454
vt 0.373606 0.909293
vt 0.373432 0.914936
vt 0.366012 0.924092
vt 0.015891 0.952312
vt 0.013556 0.950614
vt 0.013541 0.941885
vt 0.015921 0.945112
vt 0.298197 0.952308
vt 0.298228 0.945108
vt 0.697113 0.909004
vt 0.703898 0.909585
vt 0.703780 0.924244
vt 0.696939 0.914648
vt 0.272296 0.390375
vt 0.016785 0.390433
vt 0.232831 0.847968
vt 0.232685 0.840670
vt 0.835051 0.540528
vt 0.828237 0.540558
vt 0.547225 0.388636
vt 0.292141 0.388641
vt 0.386401 0.972560
vt 0.013685 0.972560
vt 0.013824 0.966062
vt 0.385984 0.966059
vt 0.567071 0.322589
vt 0.747661 0.322589
vt 0.747661 0.372438
vt 0.567071 0.372438
vt 0.784663 0.877556
vt 0.784917 0.881884
vt 0.630866 0.891867
vt 0.744458 0.866305
vt 0.589994 0.860129
vt 0.744712 0.861977
s 1
usemtl CardBoardBox
f 33/1/1 28/2/2 34/3/3 35/4/4
f 2/5/5 6/6/5 5/7/5 4/8/5
f 11/9/6 60/10/6 58/11/7 9/12/8
f 52/13/9 3/14/10 9/12/8 58/11/7
f 66/15/11 65/16/12 16/17/13 17/18/14
f 7/19/15 56/20/15 60/10/6 11/9/6
f 66/15/11 17/18/14 109/18/16 111/15/16
f 15/21/17 64/22/17 63/23/18 14/24/18
f 16/17/13 65/16/12 64/22/17 15/21/17
f 3/14/10 52/13/9 18/25/19 67/26/19
f 6/27/20 17/18/14 16/17/13 5/28/20
f 17/29/21 67/30/22 109/29/23
f 56/31/24 7/32/24 14/33/24 63/34/24
f 3/35/25 17/36/25 6/37/26 8/38/27
f 11/39/28 15/40/29 14/41/30 7/42/30
f 9/43/31 16/44/31 15/40/29 11/39/28
f 10/45/32 5/46/33 16/47/34 9/48/34
f 67/30/22 17/29/21 3/49/35
f 107/50/36 72/51/37 96/52/38 99/53/38
f 8/54/39 10/55/39 9/12/8 3/14/10
f 2/56/40 24/57/41 23/58/42 20/59/40
f 4/60/43 5/61/33 10/62/32 21/63/43
f 12/64/44 4/65/45 21/66/45 22/67/46
f 4/8/47 12/68/47 37/69/47 29/70/47
f 1/71/48 12/64/44 22/67/46 19/72/48
f 6/73/26 2/74/49 20/75/49 8/76/27
f 48/77/50 22/78/50 21/79/50 47/80/50
f 27/81/51 29/70/52 30/82/53 31/83/54
f 34/3/3 81/84/55 83/85/56 36/86/56
f 89/87/57 43/88/58 41/89/59 87/90/60
f 37/69/61 12/68/61 1/91/61 26/92/61
f 36/86/56 83/85/56 79/93/62 32/94/62
f 2/5/63 27/81/51 105/95/63 24/96/64
f 4/8/65 29/70/52 27/81/51 2/5/63
f 42/97/66 88/98/66 112/99/66 38/100/66
f 39/101/67 85/102/67 86/103/68 40/104/68
f 40/104/68 86/103/68 87/90/60 41/89/59
f 31/105/54 30/106/53 41/89/59 43/88/58
f 43/107/58 89/108/57 88/109/69 42/110/69
f 79/111/70 85/112/70 39/113/70 32/114/70
f 38/115/71 25/116/72 43/117/73 42/118/71
f 28/119/2 33/120/1 31/121/74 43/122/75
f 36/123/76 32/124/77 39/125/77 40/126/78
f 34/127/79 36/123/76 40/126/78 41/128/79
f 35/129/80 34/130/81 41/131/81 30/132/82
f 25/133/83 28/134/84 43/117/73
f 19/135/85 45/136/85 26/137/85 1/138/85
f 104/139/86 103/140/87 97/141/87 95/142/88
f 20/143/89 21/79/89 10/144/89 8/145/89
f 45/146/90 19/147/90 22/78/90 48/77/90
f 20/143/91 23/148/91 49/149/92 46/150/93
f 46/150/93 33/151/1 35/152/4 47/80/94
f 27/153/95 46/154/95 49/155/96 105/156/97
f 29/157/98 47/158/98 35/159/80 30/160/82
f 37/161/99 48/162/100 47/163/101 29/164/101
f 25/165/102 44/166/102 75/167/103 28/2/2
f 26/168/104 45/169/104 48/162/100 37/161/99
f 31/170/74 33/171/1 46/154/105 27/153/105
f 73/172/106 50/173/106 61/174/106 84/175/106
f 51/176/107 53/177/108 54/178/109 55/179/110
f 20/143/91 46/150/93 47/80/94 21/79/111
f 55/180/110 54/181/109 65/16/12 66/15/11
f 52/182/112 57/183/113 55/184/114 66/185/112
f 60/186/115 56/187/116 63/188/116 64/189/117
f 58/190/118 60/186/115 64/189/117 65/191/118
f 59/192/119 58/193/120 65/194/120 54/195/121
f 18/196/122 52/197/123 66/198/124
f 57/199/125 52/13/9 58/11/7 59/200/125
f 84/175/126 61/174/126 53/177/126 76/201/126
f 51/202/127 69/203/127 72/51/37 107/50/36
f 53/204/128 70/205/128 59/206/119 54/207/121
f 61/208/129 71/209/130 70/210/131 53/211/131
f 50/212/132 68/213/132 71/209/130 61/208/129
f 55/214/114 57/215/113 69/216/133 51/217/133
f 93/218/134 70/219/134 71/220/134 94/221/134
f 74/222/135 78/223/136 77/224/136 76/201/137
f 69/225/138 57/226/139 59/227/139 70/219/140
f 105/95/63 98/228/65 101/229/65 24/96/64
f 51/176/107 107/230/141 104/231/141 74/222/135
f 80/232/142 82/233/143 81/84/55 75/167/103
f 53/177/108 51/176/107 74/222/135 76/201/137
f 78/234/144 89/87/57 87/90/60 77/235/144
f 112/236/145 88/237/145 89/238/146 44/239/147
f 75/240/103 89/241/148 78/242/149 80/243/142
f 83/244/150 86/245/151 85/246/152 79/247/152
f 81/248/153 87/249/153 86/245/151 83/244/150
f 82/250/154 77/251/155 87/252/156 81/253/156
f 44/239/147 89/254/146 75/255/157
f 68/256/158 50/257/158 73/258/158 91/259/158
f 75/167/103 81/84/55 34/3/3 28/2/2
f 23/148/91 100/260/111 102/261/111 49/149/92
f 72/262/159 69/225/138 92/263/160 95/264/159
f 94/221/161 71/220/161 68/265/161 91/266/161
f 92/263/160 93/218/162 82/267/163 80/268/163
f 74/269/164 104/139/86 95/142/88 92/270/164
f 76/271/165 77/272/155 82/273/154 93/274/165
f 84/275/166 76/276/167 93/277/167 94/278/168
f 73/279/169 84/275/166 94/278/168 91/280/169
f 78/281/149 74/282/170 92/283/170 80/284/142
f 96/285/65 72/262/159 95/264/159 97/286/65
f 102/287/171 98/288/171 105/156/97 49/155/96
f 101/289/172 100/290/172 23/58/42 24/57/41
f 99/291/111 103/292/111 104/231/141 107/230/141
f 101/135/173 98/136/173 102/137/173 100/138/173
f 99/256/174 96/257/174 97/258/174 103/259/174
f 13/293/175 62/294/175 110/295/175 108/296/175
f 108/297/176 110/298/176 111/299/16 109/300/16
f 13/301/177 108/302/177 109/303/23 67/30/22
f 62/304/178 18/305/122 111/198/179 110/306/178
f 18/305/122 66/198/124 111/198/179
f 13/297/180 67/300/19 18/299/19 62/298/180
f 90/107/181 38/110/181 112/109/181 106/108/181
f 69/225/138 70/219/140 93/218/162 92/263/160
