# Blender 4.5.1 LTS
# www.blender.org
mtllib Pizza Box.mtl
o PizzaBox_1
v 0.152400 0.000923 0.152053
v 0.152400 0.000408 -0.152339
v 0.152400 0.008278 -0.178152
v 0.152400 -0.010228 -0.482252
v 0.152400 0.018535 0.172149
v 0.152400 -0.008113 -0.507727
v 0.179597 -0.010228 -0.482252
v 0.179597 -0.008113 -0.507727
v 0.167278 0.025820 0.181716
v 0.145897 0.013586 0.181716
v 0.163776 0.031941 -0.181835
v 0.142395 0.019707 -0.181835
v 0.152400 -0.000000 -0.151000
v 0.152400 0.000000 0.151000
v 0.174739 0.012781 -0.151000
v 0.174739 0.012781 0.151000
v 0.153357 0.000548 0.151000
v 0.153357 0.000548 -0.151000
v 0.152400 -0.010325 -0.481093
v 0.153503 -0.008108 -0.507782
v 0.153503 -0.010224 -0.482308
v 0.152952 0.001255 -0.152138
v 0.174334 0.013489 -0.152138
v 0.152400 0.008749 -0.179696
v 0.153052 0.001081 0.152258
v 0.174433 0.013315 0.152258
v -0.152400 0.000923 0.152053
v -0.152400 0.000408 -0.152339
v -0.152400 0.008278 -0.178152
v -0.152400 -0.010228 -0.482252
v -0.152400 0.018535 0.172149
v -0.152400 -0.008113 -0.507727
v -0.179597 -0.010228 -0.482252
v -0.179597 -0.008113 -0.507727
v -0.167278 0.025820 0.181716
v -0.145897 0.013586 0.181716
v -0.163776 0.031941 -0.181835
v -0.142395 0.019707 -0.181835
v -0.152400 -0.000000 -0.151000
v -0.152400 0.000000 0.151000
v -0.174739 0.012781 -0.151000
v -0.174739 0.012781 0.151000
v -0.153357 0.000548 0.151000
v -0.153357 0.000548 -0.151000
v -0.152400 -0.010325 -0.481093
v -0.153503 -0.008108 -0.507782
v -0.153503 -0.010224 -0.482308
v -0.152952 0.001255 -0.152138
v -0.174334 0.013489 -0.152138
v -0.152400 0.008749 -0.179696
v -0.153052 0.001081 0.152258
v -0.174433 0.013315 0.152258
v 0.152400 -0.003026 0.155513
v 0.152400 -0.004614 -0.153870
v 0.152400 0.003256 -0.179683
v 0.152400 -0.015460 -0.482687
v 0.152400 0.014587 0.175609
v 0.152400 -0.013345 -0.508161
v 0.179597 -0.015460 -0.482687
v 0.179597 -0.013345 -0.508161
v 0.169620 0.021727 0.184023
v 0.148239 0.009493 0.184023
v 0.165896 0.028235 -0.184891
v 0.144515 0.016001 -0.184891
v 0.152400 -0.005250 -0.151000
v 0.152400 -0.005250 0.151000
v 0.177346 0.008225 -0.151000
v 0.177346 0.008225 0.151000
v 0.155964 -0.004009 0.151000
v 0.155964 -0.004009 -0.151000
v 0.152400 -0.015557 -0.481527
v 0.153503 -0.013340 -0.508217
v 0.153503 -0.015456 -0.482742
v 0.155072 -0.002450 -0.155194
v 0.176454 0.009783 -0.155194
v 0.152400 0.003509 -0.179364
v 0.155394 -0.003012 0.154564
v 0.176775 0.009222 0.154564
v -0.152400 -0.003026 0.155513
v -0.152400 -0.004614 -0.153870
v -0.152400 0.003256 -0.179683
v -0.152400 -0.015460 -0.482687
v -0.152400 0.014587 0.175609
v -0.152400 -0.013345 -0.508161
v -0.179597 -0.015460 -0.482687
v -0.179597 -0.013345 -0.508161
v -0.169620 0.021727 0.184023
v -0.148239 0.009493 0.184023
v -0.165896 0.028235 -0.184891
v -0.144515 0.016001 -0.184891
v -0.152400 -0.005250 -0.151000
v -0.152400 -0.005250 0.151000
v -0.177346 0.008225 -0.151000
v -0.177346 0.008225 0.151000
v -0.155964 -0.004009 0.151000
v -0.155964 -0.004009 -0.151000
v -0.152400 -0.015557 -0.481527
v -0.153503 -0.013340 -0.508217
v -0.153503 -0.015456 -0.482742
v -0.155072 -0.002450 -0.155194
v -0.176454 0.009783 -0.155194
v -0.152400 0.003509 -0.179364
v -0.155394 -0.003012 0.154564
v -0.176775 0.009222 0.154564
vn -0.4461 0.7797 -0.4393
vn -0.0000 0.9966 0.0827
vn -0.0000 0.7521 -0.6591
vn 0.1723 0.9798 0.1012
vn 0.1808 0.9538 -0.2399
vn -0.1808 0.9538 -0.2399
vn -0.1723 0.9798 0.1012
vn -0.4038 0.7058 0.5821
vn -0.4863 0.8500 0.2026
vn -0.4729 0.8264 0.3057
vn -0.0000 0.9565 0.2916
vn -0.0000 1.0000 0.0098
vn -0.0000 0.9932 0.1161
vn -0.4910 0.8582 -0.1499
vn -0.4838 0.8456 -0.2255
vn -0.0000 -1.0000 -0.0099
vn -0.0000 -0.9966 -0.0827
vn 0.4461 0.7797 -0.4393
vn 0.4038 0.7058 0.5821
vn 0.4729 0.8264 0.3057
vn 0.4863 0.8500 0.2026
vn 0.4910 0.8582 -0.1499
vn 0.4838 0.8456 -0.2255
vn 0.4606 -0.8050 0.3740
vn 0.4461 -0.7797 0.4393
vn -0.0000 -0.7521 0.6591
vn -0.0000 -0.8316 0.5553
vn -0.1116 -0.9910 -0.0735
vn 0.1116 -0.9910 -0.0735
vn 0.1136 -0.9817 0.1527
vn -0.1136 -0.9817 0.1527
vn 0.4327 -0.7563 -0.4907
vn 0.4865 -0.8503 -0.2009
vn 0.4368 -0.8895 -0.1341
vn -0.0000 -0.9671 -0.2543
vn -0.0000 -0.9980 0.0630
vn 0.4391 -0.8924 0.1038
vn 0.4906 -0.8574 0.1553
vn -0.0000 -0.9565 -0.2916
vn -0.0000 0.7827 -0.6224
vn 0.4038 -0.7058 -0.5821
vn -0.0000 0.6591 0.7521
vn -0.4606 -0.8050 0.3740
vn -0.4461 -0.7797 0.4393
vn -0.4327 -0.7563 -0.4907
vn -0.4368 -0.8895 -0.1341
vn -0.4865 -0.8503 -0.2009
vn -0.4391 -0.8924 0.1038
vn -0.4906 -0.8574 0.1553
vn -0.4038 -0.7058 -0.5821
vn 1.0000 -0.0000 -0.0000
vn 0.0253 0.0827 -0.9963
vn -0.0253 0.0827 -0.9963
vn -0.0243 0.0827 -0.9963
vn -0.2182 0.3813 0.8983
vn -0.8680 -0.4966 -0.0000
vn -0.2891 0.5052 -0.8131
vn -0.0000 -0.0000 1.0000
vn -0.0000 -0.0000 -1.0000
vn 0.8680 0.4966 -0.0000
vn -0.0021 -0.0828 0.9966
vn 0.0242 -0.0827 0.9963
vn 0.0021 0.0827 -0.9966
vn 0.0506 -0.0826 0.9953
vn -1.0000 -0.0000 -0.0000
vn 0.0243 0.0827 -0.9963
vn 0.2182 0.3813 0.8983
vn 0.8680 -0.4966 -0.0000
vn 0.2891 0.5052 -0.8131
vn -0.8680 0.4966 -0.0000
vn -0.0242 -0.0827 0.9963
vn 0.0021 -0.0828 0.9966
vn -0.0021 0.0827 -0.9966
vn -0.0506 -0.0826 0.9953
vt 0.820598 0.913445
vt 0.858834 0.913445
vt 0.858834 0.942168
vt 0.820598 0.942168
vt 0.444236 0.013739
vt 0.819987 0.013739
vt 0.819987 0.045251
vt 0.444236 0.045251
vt 0.946798 0.013777
vt 0.946799 0.367985
vt 0.915745 0.367985
vt 0.915745 0.013777
vt 0.822379 0.438931
vt 0.822379 0.813543
vt 0.444293 0.813543
vt 0.444293 0.438931
vt 0.952980 0.013727
vt 0.952980 0.367934
vt 0.442877 0.013670
vt 0.442877 0.045182
vt 0.410709 0.045251
vt 0.410709 0.013739
vt 0.465207 0.913445
vt 0.466839 0.913445
vt 0.466839 0.942168
vt 0.465207 0.942168
vt 0.371905 0.019571
vt 0.034295 0.019570
vt 0.034247 0.013678
vt 0.371858 0.013678
vt 0.444291 0.051809
vt 0.820041 0.051809
vt 0.820041 0.424107
vt 0.444291 0.424107
vt 0.819051 0.907301
vt 0.818966 0.913445
vt 0.466924 0.907301
vt 0.818966 0.942168
vt 0.371905 0.049461
vt 0.034295 0.049461
vt 0.371952 0.055353
vt 0.034342 0.055353
vt 0.422622 0.913445
vt 0.422622 0.942168
vt 0.058324 0.113269
vt 0.058321 0.489008
vt 0.051764 0.489053
vt 0.051766 0.113313
vt 0.864778 0.502648
vt 0.836055 0.502647
vt 0.836056 0.464412
vt 0.864779 0.464412
vt 0.821346 0.013670
vt 0.853514 0.013739
vt 0.853514 0.045251
vt 0.821346 0.045182
vt 0.864770 0.858035
vt 0.836048 0.858034
vt 0.836048 0.856402
vt 0.864770 0.856402
vt 0.870923 0.504229
vt 0.870915 0.856351
vt 0.864778 0.504280
vt 0.836055 0.504280
vt 0.864769 0.900618
vt 0.836047 0.900617
vt 0.913326 0.502643
vt 0.884604 0.502643
vt 0.884604 0.464407
vt 0.913327 0.464408
vt 0.020291 0.489284
vt 0.020194 0.113060
vt 0.013673 0.928856
vt 0.367880 0.928856
vt 0.367880 0.959909
vt 0.013673 0.959909
vt 0.034334 0.915000
vt 0.034334 0.536914
vt 0.408947 0.536914
vt 0.408947 0.915000
vt 0.367930 0.966091
vt 0.013723 0.966091
vt 0.020160 0.111697
vt 0.020294 0.079471
vt 0.051954 0.079643
vt 0.051709 0.111962
vt 0.913318 0.858030
vt 0.884596 0.858029
vt 0.884596 0.856397
vt 0.913318 0.856398
vt 0.760370 0.870582
vt 0.422760 0.870582
vt 0.422712 0.864690
vt 0.760322 0.864690
vt 0.430612 0.113271
vt 0.430609 0.489011
vt 0.919472 0.504225
vt 0.919464 0.856347
vt 0.913326 0.504276
vt 0.884604 0.504275
vt 0.422712 0.834800
vt 0.760322 0.834800
vt 0.422665 0.828908
vt 0.760276 0.828908
vt 0.913317 0.900613
vt 0.884595 0.900613
vt 0.933152 0.793730
vt 0.933160 0.418554
vt 0.939708 0.418552
vt 0.939701 0.793729
vt 0.895916 0.411649
vt 0.895916 0.449885
vt 0.867193 0.449885
vt 0.867193 0.411649
vt 0.020256 0.490647
vt 0.051706 0.490400
vt 0.051968 0.522659
vt 0.020366 0.522849
vt 0.895916 0.056258
vt 0.895916 0.057890
vt 0.867193 0.057890
vt 0.867193 0.056258
vt 0.902060 0.410102
vt 0.895916 0.410017
vt 0.902060 0.057975
vt 0.867193 0.410017
vt 0.895916 0.013673
vt 0.867193 0.013673
vt 0.392142 0.015681
vt 0.392142 0.049155
vt 0.385630 0.049155
vt 0.385630 0.015681
vt 0.013763 0.489232
vt 0.013687 0.113116
vt 0.013753 0.079449
vt 0.013857 0.047598
vt 0.020399 0.047619
vt 0.013676 0.111740
vt 0.973185 0.555851
vt 0.973187 0.586446
vt 0.966666 0.586446
vt 0.966665 0.555851
vt 0.973183 0.016781
vt 0.973185 0.062140
vt 0.966665 0.062140
vt 0.966663 0.016781
vt 0.973187 0.092734
vt 0.966666 0.092734
vt 0.973189 0.627174
vt 0.973189 0.628913
vt 0.966668 0.628913
vt 0.966668 0.627174
vt 0.933160 0.830184
vt 0.933159 0.828808
vt 0.939708 0.828807
vt 0.939708 0.830182
vt 0.973183 0.013672
vt 0.973183 0.015042
vt 0.966662 0.015042
vt 0.966662 0.013673
vt 0.973189 0.139832
vt 0.973183 0.513384
vt 0.966662 0.513384
vt 0.966668 0.139832
vt 0.933159 0.827062
vt 0.939708 0.827061
vt 0.973189 0.138093
vt 0.966668 0.138094
vt 0.973183 0.515123
vt 0.966662 0.515123
vt 0.842579 0.060708
vt 0.842579 0.062153
vt 0.836054 0.062154
vt 0.836053 0.060708
vt 0.013964 0.015084
vt 0.020506 0.015105
vt 0.392142 0.050891
vt 0.385630 0.050891
vt 0.842579 0.436001
vt 0.836053 0.436002
vt 0.013968 0.013708
vt 0.020510 0.013730
vt 0.392142 0.013678
vt 0.385630 0.013678
vt 0.405812 0.096186
vt 0.405813 0.062712
vt 0.412325 0.062712
vt 0.412325 0.096186
vt 0.013993 0.554477
vt 0.013875 0.522873
vt 0.020484 0.554453
vt 0.013755 0.490612
vt 0.056141 0.979804
vt 0.086735 0.979803
vt 0.086736 0.986323
vt 0.056141 0.986324
vt 0.580448 0.979811
vt 0.625807 0.979810
vt 0.625807 0.986330
vt 0.580448 0.986332
vt 0.549853 0.979812
vt 0.549853 0.986333
vt 0.013674 0.979805
vt 0.015413 0.979805
vt 0.015413 0.986326
vt 0.013675 0.986326
vt 0.933152 0.383475
vt 0.933152 0.382100
vt 0.939701 0.382098
vt 0.939701 0.383474
vt 0.627546 0.979810
vt 0.628915 0.979810
vt 0.628916 0.986330
vt 0.627546 0.986330
vt 0.129202 0.979802
vt 0.502754 0.979814
vt 0.502755 0.986334
vt 0.129202 0.986322
vt 0.933153 0.385222
vt 0.939702 0.385220
vt 0.504493 0.979814
vt 0.504493 0.986334
vt 0.127463 0.979802
vt 0.127463 0.986322
vt 0.424070 0.892268
vt 0.422624 0.892268
vt 0.422624 0.885742
vt 0.424069 0.885742
vt 0.014114 0.586738
vt 0.020605 0.586714
vt 0.405812 0.097923
vt 0.412325 0.097923
vt 0.797918 0.892268
vt 0.797917 0.885742
vt 0.014119 0.588103
vt 0.020610 0.588079
vt 0.405812 0.060709
vt 0.412325 0.060709
s 1
usemtl PizzaBox
f 25/1/1 10/2/1 9/3/1 26/4/1
f 6/5/2 32/6/2 30/7/2 4/8/2
f 1/9/3 27/10/3 31/11/3 5/12/3
f 39/13/4 40/14/5 14/15/6 13/16/7
f 14/17/6 40/18/5 27/10/3 1/9/3
f 20/19/2 21/20/2 7/21/2 8/22/2
f 22/23/8 18/24/9 15/25/10 23/26/8
f 2/27/11 28/28/11 39/29/4 13/30/7
f 19/31/12 45/32/12 50/33/13 24/34/13
f 14/35/6 17/36/14 18/24/9 13/37/7
f 17/36/14 16/38/15 15/25/10 18/24/9
f 3/39/11 29/40/11 28/28/11 2/27/11
f 24/41/13 50/42/13 29/40/11 3/39/11
f 6/5/2 4/8/2 21/20/2 20/19/2
f 12/43/8 22/23/8 23/26/8 11/44/8
f 71/45/16 97/46/16 82/47/17 56/48/17
f 17/36/14 25/1/1 26/4/1 16/38/15
f 51/49/18 52/50/18 35/51/18 36/52/18
f 46/53/2 34/54/2 33/55/2 47/56/2
f 48/57/19 49/58/19 41/59/20 44/60/21
f 40/61/5 39/62/4 44/60/21 43/63/22
f 43/63/22 44/60/21 41/59/20 42/64/23
f 32/6/2 46/53/2 47/56/2 30/7/2
f 38/65/19 37/66/19 49/58/19 48/57/19
f 43/63/22 42/64/23 52/50/18 51/49/18
f 77/67/24 78/68/24 61/69/25 62/70/25
f 56/48/17 82/47/17 84/71/17 58/72/17
f 57/73/26 83/74/26 79/75/27 53/76/27
f 91/77/28 65/78/29 66/79/30 92/80/31
f 53/76/27 79/75/27 92/81/31 66/82/30
f 72/83/17 60/84/17 59/85/17 73/86/17
f 74/87/32 75/88/32 67/89/33 70/90/34
f 65/91/29 91/92/28 80/93/35 54/94/35
f 76/95/36 102/96/36 97/46/16 71/45/16
f 66/97/30 65/98/29 70/90/34 69/99/37
f 69/99/37 70/90/34 67/89/33 68/100/38
f 54/94/35 80/93/35 81/101/39 55/102/39
f 55/102/40 81/101/40 102/103/40 76/104/40
f 58/72/17 72/83/17 73/86/17 56/48/17
f 64/105/41 63/106/41 75/88/32 74/87/32
f 5/107/42 31/108/42 83/109/42 57/110/42
f 69/99/37 68/100/38 78/68/24 77/67/24
f 103/111/43 88/112/44 87/113/44 104/114/43
f 98/115/17 99/116/17 85/117/17 86/118/17
f 100/119/45 96/120/46 93/121/47 101/122/45
f 92/123/31 95/124/48 96/120/46 91/125/28
f 95/124/48 94/126/49 93/121/47 96/120/46
f 84/71/17 82/47/17 99/116/17 98/115/17
f 90/127/50 100/119/45 101/122/45 89/128/50
f 95/124/48 103/111/43 104/114/43 94/126/49
f 3/129/51 2/130/51 54/131/51 55/132/51
f 32/133/52 6/134/53 58/72/53 84/71/52
f 8/135/51 7/136/51 59/137/51 60/84/51
f 6/134/53 20/138/54 72/83/54 58/72/53
f 9/139/55 10/140/55 62/141/55 61/142/55
f 22/143/56 12/144/56 64/145/56 74/146/56
f 12/144/57 11/147/57 63/148/57 64/145/57
f 25/149/56 17/150/56 69/151/56 77/152/56
f 17/153/58 14/154/58 66/155/58 69/156/58
f 13/157/59 18/158/59 70/159/59 65/160/59
f 15/161/60 16/162/60 68/163/60 67/164/60
f 14/154/51 1/165/51 53/166/51 66/155/51
f 11/147/60 23/167/60 75/168/60 63/148/60
f 16/162/60 26/169/60 78/170/60 68/163/60
f 4/171/51 19/172/51 71/173/51 56/174/51
f 1/165/51 5/107/51 57/110/51 53/166/51
f 7/136/61 21/175/62 73/176/62 59/137/61
f 2/130/51 13/177/51 65/178/51 54/131/51
f 19/172/51 24/179/51 76/180/51 71/173/51
f 20/138/54 8/135/63 60/84/63 72/83/54
f 21/175/62 4/181/64 56/182/64 73/176/62
f 18/158/56 22/143/56 74/146/56 70/159/56
f 23/167/60 15/161/60 67/164/60 75/168/60
f 24/183/51 3/129/51 55/132/51 76/184/51
f 10/140/56 25/149/56 77/152/56 62/141/56
f 26/169/60 9/139/60 61/142/60 78/170/60
f 28/185/65 29/186/65 81/187/65 80/188/65
f 33/189/65 34/190/65 86/118/65 85/191/65
f 46/192/66 32/133/52 84/71/52 98/115/66
f 36/193/67 35/194/67 87/195/67 88/196/67
f 38/197/68 48/198/68 100/199/68 90/200/68
f 37/201/69 38/197/69 90/200/69 89/202/69
f 43/203/68 51/204/68 103/205/68 95/206/68
f 40/207/58 43/208/58 95/209/58 92/210/58
f 44/211/59 39/212/59 91/213/59 96/214/59
f 42/215/70 41/216/70 93/217/70 94/218/70
f 27/219/65 40/207/65 92/210/65 79/220/65
f 49/221/70 37/201/70 89/202/70 101/222/70
f 52/223/70 42/215/70 94/218/70 104/224/70
f 45/225/65 30/226/65 82/227/65 97/228/65
f 31/108/65 27/219/65 79/220/65 83/109/65
f 47/229/71 33/189/72 85/191/72 99/230/71
f 39/231/65 28/185/65 80/188/65 91/232/65
f 50/233/65 45/225/65 97/228/65 102/234/65
f 34/190/73 46/192/66 98/115/66 86/118/73
f 30/235/74 47/229/71 99/230/71 82/236/74
f 48/198/68 44/211/68 96/214/68 100/199/68
f 41/216/70 49/221/70 101/222/70 93/217/70
f 29/186/65 50/237/65 102/238/65 81/187/65
f 51/204/68 36/193/68 88/196/68 103/205/68
f 35/194/70 52/223/70 104/224/70 87/195/70
f 4/8/2 30/7/2 45/32/12 19/31/12
